<svg xmlns="http://www.w3.org/2000/svg" width="1200" height="520" viewBox="0 0 1200 520">
<rect width="100%" height="100%" fill="white"/>
<text x="600.0" y="28" text-anchor="middle" font-family="Arial" font-size="20" font-weight="bold">Weekday versus weekend mean hourly profiles</text>
<line x1="80" y1="55" x2="80" y2="450" stroke="#111"/>
<line x1="80" y1="450" x2="1175" y2="450" stroke="#111"/>
<text x="18" y="252.5" transform="rotate(-90 18 252.5)" text-anchor="middle" font-family="Arial" font-size="13">Mean kWh per hour</text>
<line x1="80" y1="450.00" x2="1175" y2="450.00" stroke="#e5e7eb"/>
<text x="72" y="454.00" text-anchor="end" font-family="Arial" font-size="11">0.70</text>
<line x1="80" y1="371.00" x2="1175" y2="371.00" stroke="#e5e7eb"/>
<text x="72" y="375.00" text-anchor="end" font-family="Arial" font-size="11">1.80</text>
<line x1="80" y1="292.00" x2="1175" y2="292.00" stroke="#e5e7eb"/>
<text x="72" y="296.00" text-anchor="end" font-family="Arial" font-size="11">2.90</text>
<line x1="80" y1="213.00" x2="1175" y2="213.00" stroke="#e5e7eb"/>
<text x="72" y="217.00" text-anchor="end" font-family="Arial" font-size="11">3.99</text>
<line x1="80" y1="134.00" x2="1175" y2="134.00" stroke="#e5e7eb"/>
<text x="72" y="138.00" text-anchor="end" font-family="Arial" font-size="11">5.09</text>
<line x1="80" y1="55.00" x2="1175" y2="55.00" stroke="#e5e7eb"/>
<text x="72" y="59.00" text-anchor="end" font-family="Arial" font-size="11">6.19</text>
<polyline points="80.00,423.64 127.61,432.45 175.22,436.50 222.83,441.66 270.43,442.70 318.04,438.67 365.65,419.13 413.26,400.19 460.87,413.17 508.48,415.03 556.09,403.34 603.70,387.49 651.30,387.80 698.91,409.21 746.52,408.55 794.13,405.03 841.74,361.97 889.35,258.87 936.96,118.99 984.57,55.00 1032.17,189.52 1079.78,264.53 1127.39,298.33 1175.00,377.53" fill="none" stroke="#2563eb" stroke-width="1.6"/>
<polyline points="80.00,433.29 127.61,438.89 175.22,450.00 222.83,449.92 270.43,445.57 318.04,438.62 365.65,425.44 413.26,403.02 460.87,422.60 508.48,421.82 556.09,415.36 603.70,386.76 651.30,383.53 698.91,384.08 746.52,409.37 794.13,410.40 841.74,320.60 889.35,271.35 936.96,249.41 984.57,177.47 1032.17,224.78 1079.78,212.21 1127.39,264.92 1175.00,411.29" fill="none" stroke="#dc2626" stroke-width="1.6"/>
<text x="80.00" y="472" text-anchor="middle" font-family="Arial" font-size="10">00:00</text>
<text x="365.65" y="472" text-anchor="middle" font-family="Arial" font-size="10">06:00</text>
<text x="651.30" y="472" text-anchor="middle" font-family="Arial" font-size="10">12:00</text>
<text x="936.96" y="472" text-anchor="middle" font-family="Arial" font-size="10">18:00</text>
<text x="1175.00" y="472" text-anchor="middle" font-family="Arial" font-size="10">23:00</text>
<line x1="80" y1="500" x2="104" y2="500" stroke="#2563eb" stroke-width="3"/>
<text x="110" y="504" font-family="Arial" font-size="12">Weekday</text>
<line x1="265" y1="500" x2="289" y2="500" stroke="#dc2626" stroke-width="3"/>
<text x="295" y="504" font-family="Arial" font-size="12">Weekend</text>
</svg>
