<svg xmlns="http://www.w3.org/2000/svg" width="1200" height="520" viewBox="0 0 1200 520">
<rect width="100%" height="100%" fill="white"/>
<text x="600.0" y="28" text-anchor="middle" font-family="Arial" font-size="20" font-weight="bold">Mean demand by occupancy/AWAY state</text>
<line x1="80" y1="55" x2="80" y2="425" stroke="#111"/>
<line x1="80" y1="425" x2="1175" y2="425" stroke="#111"/>
<text x="18" y="240.0" transform="rotate(-90 18 240.0)" text-anchor="middle" font-family="Arial" font-size="13">Mean kWh per hour</text>
<line x1="80" y1="425.00" x2="1175" y2="425.00" stroke="#e5e7eb"/>
<text x="72" y="429.00" text-anchor="end" font-family="Arial" font-size="11">0.00</text>
<line x1="80" y1="351.00" x2="1175" y2="351.00" stroke="#e5e7eb"/>
<text x="72" y="355.00" text-anchor="end" font-family="Arial" font-size="11">0.43</text>
<line x1="80" y1="277.00" x2="1175" y2="277.00" stroke="#e5e7eb"/>
<text x="72" y="281.00" text-anchor="end" font-family="Arial" font-size="11">0.85</text>
<line x1="80" y1="203.00" x2="1175" y2="203.00" stroke="#e5e7eb"/>
<text x="72" y="207.00" text-anchor="end" font-family="Arial" font-size="11">1.28</text>
<line x1="80" y1="129.00" x2="1175" y2="129.00" stroke="#e5e7eb"/>
<text x="72" y="133.00" text-anchor="end" font-family="Arial" font-size="11">1.70</text>
<line x1="80" y1="55.00" x2="1175" y2="55.00" stroke="#e5e7eb"/>
<text x="72" y="59.00" text-anchor="end" font-family="Arial" font-size="11">2.13</text>
<rect x="112.85" y="55.00" width="208.05" height="370.00" fill="#2563eb"/>
<text x="216.88" y="443" text-anchor="middle" font-family="Arial" font-size="10" transform="rotate(25 216.88 443)">FULL</text>
<rect x="386.60" y="122.08" width="208.05" height="302.92" fill="#dc2626"/>
<text x="490.62" y="443" text-anchor="middle" font-family="Arial" font-size="10" transform="rotate(25 490.62 443)">PARTIAL</text>
<rect x="660.35" y="143.36" width="208.05" height="281.64" fill="#16a34a"/>
<text x="764.38" y="443" text-anchor="middle" font-family="Arial" font-size="10" transform="rotate(25 764.38 443)">EMPTY</text>
<rect x="934.10" y="338.04" width="208.05" height="86.96" fill="#9333ea"/>
<text x="1038.12" y="443" text-anchor="middle" font-family="Arial" font-size="10" transform="rotate(25 1038.12 443)">AWAY</text>
</svg>
